<?xml version="1.0" encoding="UTF-8"?><svg width="165.1mm" height="53.2694mm" viewBox="0 0 468 151" xmlns="http://www.w3.org/2000/svg" xmlns:xlink="http://www.w3.org/1999/xlink"><g fill="none" stroke="black" stroke-width="1" fill-rule="evenodd" stroke-linecap="square" stroke-linejoin="bevel"><g clip-path="none" fill="#ffffff" fill-opacity="1" opacity="1" stroke="none" stroke-opacity="0" transform="matrix(1,0,0,1,0,0)"><path d="M0,0 L467.953,0 L467.953,151 L0,151 L0,0 z" fill-rule="evenodd" vector-effect="none"/></g><defs><clipPath id="clip3"><path d="M-17,-2 L450.953,-2 L450.953,149 L-17,149 L-17,-2 z"/></clipPath></defs><g clip-path="url(#clip3)" fill="#ffffff" fill-opacity="1" opacity="1" stroke="none" stroke-opacity="0" transform="matrix(1,0,0,1,17,2)"><path d="M0,0 L30,0 L30,30 L0,30 L0,0 z" fill-rule="evenodd" vector-effect="none"/></g><defs><clipPath id="clip7"><path d="M0,0 L31,0 L31,31 L0,31 L0,0 z"/></clipPath></defs><g clip-path="url(#clip7)" fill="none" opacity="1" stroke="none" stroke-opacity="0" transform="matrix(1,0,0,1,16.7812,2)"><path d="M0,0 L31,0 L31,31 L0,31 L0,0 z" fill-rule="evenodd" vector-effect="none"/></g><defs><clipPath id="clip17"><path d="M0,0 L30,0 L30,30 L0,30 L0,0 z"/></clipPath></defs><g clip-path="url(#clip17)" fill="#000000" fill-opacity="1" opacity="1" stroke="none" stroke-opacity="0" transform="matrix(1,0,0,1,16.7812,2)"><path d="M12.5312,17.6094 C12.5638,17.0072 12.6883,16.4831 12.9048,16.0371 C13.1213,15.5911 13.5436,15.1859 14.1719,14.8213 L15.1094,14.2793 C15.5293,14.0352 15.8239,13.8268 15.9932,13.6543 C16.2601,13.3841 16.3936,13.0749 16.3936,12.7266 C16.3936,12.3197 16.2715,11.9966 16.0273,11.7573 C15.7832,11.5181 15.4577,11.3984 15.0508,11.3984 C14.4486,11.3984 14.0319,11.6263 13.8008,12.082 C13.6771,12.3262 13.6087,12.6647 13.5957,13.0977 L12.7021,13.0977 C12.7119,12.4889 12.8242,11.9925 13.0391,11.6084 C13.4199,10.9313 14.0921,10.5928 15.0557,10.5928 C15.8564,10.5928 16.4416,10.8092 16.811,11.2422 C17.1805,11.6751 17.3652,12.1569 17.3652,12.6875 C17.3652,13.2474 17.1683,13.7259 16.7744,14.123 C16.5465,14.3542 16.138,14.6341 15.5488,14.9629 L14.8799,15.334 C14.5609,15.5098 14.3102,15.6774 14.1279,15.8369 C13.8024,16.1201 13.5973,16.4342 13.5127,16.7793 L17.3311,16.7793 L17.3311,17.6094 L12.5312,17.6094 z" fill-rule="nonzero" vector-effect="none"/></g><defs><clipPath id="clip37"><path d="M-16.5,-2.5 L451.453,-2.5 L451.453,148.5 L-16.5,148.5 L-16.5,-2.5 z"/></clipPath></defs><g clip-path="url(#clip37)" fill="none" opacity="1" stroke="#000000" stroke-linecap="butt" stroke-linejoin="miter" stroke-miterlimit="2" stroke-opacity="1" stroke-width="1" transform="matrix(1,0,0,1,16.5,2.5)"><path d="M0,0 L30,0 L30,30 L0,30 L0,0 z" fill-rule="evenodd" vector-effect="none"/></g><defs><clipPath id="clip43"><path d="M0,0 L45,0 L45,30 L0,30 L0,0 z"/></clipPath></defs><g clip-path="url(#clip43)" fill="none" opacity="1" stroke="#000000" stroke-linecap="square" stroke-linejoin="bevel" stroke-opacity="1" stroke-width="1" transform="matrix(1,0,0,1,9.19531,34)"><text fill="#000000" fill-opacity="1" font-family="Courier New" font-size="24" font-style="normal" font-weight="400" stroke="none" textLength="43.1719" x="1" xml:space="preserve" y="20.9688">Two</text></g><defs><clipPath id="clip51"><path d="M-147,-24 L320.953,-24 L320.953,127 L-147,127 L-147,-24 z"/></clipPath></defs><g clip-path="url(#clip51)" fill="#ffffff" fill-opacity="1" opacity="1" stroke="none" stroke-opacity="0" transform="matrix(1,0,0,1,147,24)"><path d="M0,0 L30,0 L30,31 L0,31 L0,0 z" fill-rule="nonzero" vector-effect="none"/></g><defs><clipPath id="clip55"><path d="M225,112 L255,112 L255,143 L225,143 L225,112 z"/></clipPath></defs><g clip-path="url(#clip55)" fill="none" opacity="1" stroke="#000000" stroke-linecap="butt" stroke-linejoin="miter" stroke-miterlimit="2" stroke-opacity="1" stroke-width="1" transform="matrix(1,0,0,1,-77.5,-87.5)"><polyline fill="none" points="228,124 232,124" vector-effect="none"/></g><defs><clipPath id="clip56"><path d="M225,112 L255,112 L255,143 L225,143 L225,112 z"/></clipPath></defs><g clip-path="url(#clip56)" fill="none" opacity="1" stroke="#000000" stroke-linecap="butt" stroke-linejoin="miter" stroke-miterlimit="2" stroke-opacity="1" stroke-width="1" transform="matrix(1,0,0,1,-77.5,-87.5)"><polyline fill="none" points="230,122 230,126" vector-effect="none"/></g><defs><clipPath id="clip57"><path d="M225,112 L255,112 L255,143 L225,143 L225,112 z"/></clipPath></defs><g clip-path="url(#clip57)" fill="none" opacity="1" stroke="#000000" stroke-linecap="butt" stroke-linejoin="miter" stroke-miterlimit="2" stroke-opacity="1" stroke-width="1" transform="matrix(1,0,0,1,-77.5,-87.5)"><polyline fill="none" points="228,131 232,131" vector-effect="none"/></g><defs><clipPath id="clip58"><path d="M225,112 L255,112 L255,143 L225,143 L225,112 z"/></clipPath></defs><g clip-path="url(#clip58)" fill="none" opacity="1" stroke="#000000" stroke-linecap="butt" stroke-linejoin="miter" stroke-miterlimit="2" stroke-opacity="1" stroke-width="1" transform="matrix(1,0,0,1,-77.5,-87.5)"><polyline fill="none" points="230,129 230,133" vector-effect="none"/></g><defs><clipPath id="clip63"><path d="M-146.5,-24.5 L321.453,-24.5 L321.453,126.5 L-146.5,126.5 L-146.5,-24.5 z"/></clipPath></defs><g clip-path="url(#clip63)" fill="none" opacity="1" stroke="#000000" stroke-linecap="butt" stroke-linejoin="miter" stroke-miterlimit="2" stroke-opacity="1" stroke-width="1" transform="matrix(1,0,0,1,146.5,24.5)"><path d="M0,0 L30,0 L30,31 L0,31 L0,0 z" fill-rule="nonzero" vector-effect="none"/></g><defs><clipPath id="clip69"><path d="M0,0 L117,0 L117,30 L0,30 L0,0 z"/></clipPath></defs><g clip-path="url(#clip69)" fill="none" opacity="1" stroke="#000000" stroke-linecap="square" stroke-linejoin="bevel" stroke-opacity="1" stroke-width="1" transform="matrix(1,0,0,1,103.219,57)"><text fill="#000000" fill-opacity="1" font-family="Courier New" font-size="24" font-style="normal" font-weight="400" stroke="none" textLength="115.125" x="1" xml:space="preserve" y="20.9688">Add Them</text></g><defs><clipPath id="clip77"><path d="M-17,-87 L450.953,-87 L450.953,64 L-17,64 L-17,-87 z"/></clipPath></defs><g clip-path="url(#clip77)" fill="#ffffff" fill-opacity="1" opacity="1" stroke="none" stroke-opacity="0" transform="matrix(1,0,0,1,17,87)"><path d="M0,0 L30,0 L30,30 L0,30 L0,0 z" fill-rule="evenodd" vector-effect="none"/></g><defs><clipPath id="clip81"><path d="M0,0 L31,0 L31,31 L0,31 L0,0 z"/></clipPath></defs><g clip-path="url(#clip81)" fill="none" opacity="1" stroke="none" stroke-opacity="0" transform="matrix(1,0,0,1,16.7812,87)"><path d="M0,0 L31,0 L31,31 L0,31 L0,0 z" fill-rule="evenodd" vector-effect="none"/></g><defs><clipPath id="clip91"><path d="M0,0 L30,0 L30,30 L0,30 L0,0 z"/></clipPath></defs><g clip-path="url(#clip91)" fill="#000000" fill-opacity="1" opacity="1" stroke="none" stroke-opacity="0" transform="matrix(1,0,0,1,16.7812,87)"><path d="M13.4541,15.8271 C13.5127,16.3285 13.7454,16.6751 14.1523,16.8672 C14.3607,16.9648 14.6016,17.0137 14.875,17.0137 C15.3958,17.0137 15.7816,16.8477 16.0322,16.5156 C16.2829,16.1836 16.4082,15.8158 16.4082,15.4121 C16.4082,14.9238 16.2593,14.5462 15.9614,14.2793 C15.6636,14.0124 15.3063,13.8789 14.8896,13.8789 C14.5869,13.8789 14.3273,13.9375 14.1108,14.0547 C13.8944,14.1719 13.7096,14.3346 13.5566,14.543 L12.7949,14.499 L13.3271,10.7344 L16.96,10.7344 L16.96,11.584 L13.9863,11.584 L13.6885,13.5273 C13.8512,13.4036 14.0059,13.3109 14.1523,13.249 C14.4128,13.1416 14.7139,13.0879 15.0557,13.0879 C15.6969,13.0879 16.2406,13.2946 16.6865,13.708 C17.1325,14.1214 17.3555,14.6455 17.3555,15.2803 C17.3555,15.9411 17.1512,16.5238 16.7427,17.0283 C16.3341,17.5329 15.6823,17.7852 14.7871,17.7852 C14.2174,17.7852 13.7137,17.6248 13.2759,17.3042 C12.8381,16.9836 12.5931,16.4912 12.541,15.8271 L13.4541,15.8271 z" fill-rule="nonzero" vector-effect="none"/></g><defs><clipPath id="clip111"><path d="M-16.5,-87.5 L451.453,-87.5 L451.453,63.5 L-16.5,63.5 L-16.5,-87.5 z"/></clipPath></defs><g clip-path="url(#clip111)" fill="none" opacity="1" stroke="#000000" stroke-linecap="butt" stroke-linejoin="miter" stroke-miterlimit="2" stroke-opacity="1" stroke-width="1" transform="matrix(1,0,0,1,16.5,87.5)"><path d="M0,0 L30,0 L30,30 L0,30 L0,0 z" fill-rule="evenodd" vector-effect="none"/></g><defs><clipPath id="clip117"><path d="M0,0 L60,0 L60,30 L0,30 L0,0 z"/></clipPath></defs><g clip-path="url(#clip117)" fill="none" opacity="1" stroke="#000000" stroke-linecap="square" stroke-linejoin="bevel" stroke-opacity="1" stroke-width="1" transform="matrix(1,0,0,1,2,119)"><text fill="#000000" fill-opacity="1" font-family="Courier New" font-size="24" font-style="normal" font-weight="400" stroke="none" textLength="57.5625" x="1" xml:space="preserve" y="20.9688">Five</text></g><defs><clipPath id="clip125"><path d="M-277,-27 L190.953,-27 L190.953,124 L-277,124 L-277,-27 z"/></clipPath></defs><g clip-path="url(#clip125)" fill="#ffffff" fill-opacity="1" opacity="1" stroke="none" stroke-opacity="0" transform="matrix(1,0,0,1,277,27)"><path d="M0,0 L30,0 L30,30 L0,30 L0,0 z" fill-rule="evenodd" vector-effect="none"/></g><defs><clipPath id="clip129"><path d="M0,0 L31,0 L31,31 L0,31 L0,0 z"/></clipPath></defs><g clip-path="url(#clip129)" fill="none" opacity="1" stroke="none" stroke-opacity="0" transform="matrix(1,0,0,1,276.781,27)"><path d="M0,0 L31,0 L31,31 L0,31 L0,0 z" fill-rule="evenodd" vector-effect="none"/></g><defs><clipPath id="clip140"><path d="M-38,-33 L43,-33 L43,38 L-38,38 L-38,-33 z"/></clipPath></defs><g clip-path="url(#clip140)" fill="#000000" fill-opacity="1" opacity="1" stroke="none" stroke-opacity="0" transform="matrix(0.25,0,0,0.25,291.281,41.5)"><path d="M-12.383,19.035 L10.036,-27.393 C10.354,-28.0643 10.725,-28.4 11.149,-28.4 C11.8557,-28.4 12.209,-28.0467 12.209,-27.34 C12.209,-27.1633 12.103,-26.863 11.891,-26.439 L-12.277,23.593 C-12.595,24.2643 -13.0367,24.6 -13.602,24.6 C-14.026,24.6 -14.3617,24.335 -14.609,23.805 L-25.103,0.75 L-27.859,2.817 C-28.2477,3.09967 -28.495,3.241 -28.601,3.241 C-28.9543,3.241 -29.131,3.04667 -29.131,2.658 C-29.131,2.48133 -28.919,2.234 -28.495,1.916 L-23.248,-2.059 C-22.8593,-2.34167 -22.612,-2.483 -22.506,-2.483 C-22.2587,-2.483 -22.029,-2.23567 -21.817,-1.741 L-12.383,19.035 z" fill-rule="nonzero" vector-effect="none"/></g><defs><clipPath id="clip141"><path d="M-38,-33 L43,-33 L43,38 L-38,38 L-38,-33 z"/></clipPath></defs><g clip-path="url(#clip141)" fill="#000000" fill-opacity="1" opacity="1" stroke="none" stroke-opacity="0" transform="matrix(0.25,0,0,0.25,291.281,41.5)"><path d="M11,-28 L38,-28 L38,-24 L11,-24 L11,-28 z" fill-rule="evenodd" vector-effect="none"/></g><defs><clipPath id="clip142"><path d="M-38,-33 L43,-33 L43,38 L-38,38 L-38,-33 z"/></clipPath></defs><g clip-path="url(#clip142)" fill="#000000" fill-opacity="1" opacity="1" stroke="none" stroke-opacity="0" transform="matrix(0.25,0,0,0.25,291.281,41.5)"><path d="M35.433,15.693 C32.73,19.244 31.882,19.986 31.034,19.986 C30.663,19.986 30.451,19.668 30.451,19.085 C30.451,18.449 31.193,15.958 31.458,14.951 L35.645,-0.896 L31.723,-0.896 C29.126,6.206 28.384,8.22 25.893,11.983 C22.607,16.965 20.169,19.774 18.367,19.774 C17.572,19.774 17.307,19.244 17.307,18.449 C17.307,18.237 17.413,17.76 17.466,17.601 L22.183,-1.214 L21.971,-1.373 C18.95,-0.684 17.042,-0.313 14.021,0.058 L14.021,0.8 C16.035,0.8 16.194,0.853 16.671,1.118 C16.989,1.277 17.254,1.701 17.254,2.072 C17.254,2.496 16.936,3.874 16.512,5.623 L14.657,12.99 C13.703,16.859 13.226,18.767 13.226,19.774 C13.226,21.735 14.18,22.583 16.035,22.583 C19.798,22.583 22.448,19.774 28.702,9.492 C27.006,15.216 26.317,18.767 26.317,19.933 C26.317,21.576 27.271,22.477 28.861,22.477 C31.352,22.477 32.73,21.417 36.175,16.17 L35.433,15.693 z" fill-rule="nonzero" vector-effect="none"/></g><defs><clipPath id="clip165"><path d="M-276.5,-27.5 L191.453,-27.5 L191.453,123.5 L-276.5,123.5 L-276.5,-27.5 z"/></clipPath></defs><g clip-path="url(#clip165)" fill="none" opacity="1" stroke="#000000" stroke-linecap="butt" stroke-linejoin="miter" stroke-miterlimit="2" stroke-opacity="1" stroke-width="1" transform="matrix(1,0,0,1,276.5,27.5)"><path d="M0,0 L30,0 L30,30 L0,30 L0,0 z" fill-rule="evenodd" vector-effect="none"/></g><defs><clipPath id="clip171"><path d="M0,0 L60,0 L60,30 L0,30 L0,0 z"/></clipPath></defs><g clip-path="url(#clip171)" fill="none" opacity="1" stroke="#000000" stroke-linecap="square" stroke-linejoin="bevel" stroke-opacity="1" stroke-width="1" transform="matrix(1,0,0,1,262,59)"><text fill="#000000" fill-opacity="1" font-family="Courier New" font-size="24" font-style="normal" font-weight="400" stroke="none" textLength="57.5625" x="1" xml:space="preserve" y="20.9688">Root</text></g><defs><clipPath id="clip179"><path d="M-407,-26 L60.9531,-26 L60.9531,125 L-407,125 L-407,-26 z"/></clipPath></defs><g clip-path="url(#clip179)" fill="#ffffff" fill-opacity="1" opacity="1" stroke="none" stroke-opacity="0" transform="matrix(1,0,0,1,407,26)"><path d="M0,0 L30,0 L30,32 L0,32 L0,0 z" fill-rule="evenodd" vector-effect="none"/></g><defs><clipPath id="clip183"><path d="M0,0 L31,0 L31,33 L0,33 L0,0 z"/></clipPath></defs><g clip-path="url(#clip183)" fill="none" opacity="1" stroke="none" stroke-opacity="0" transform="matrix(1,0,0,1,406.781,26)"><path d="M0,0 L31,0 L31,33 L0,33 L0,0 z" fill-rule="evenodd" vector-effect="none"/></g><defs><clipPath id="clip193"><path d="M1,1 L31,1 L31,33 L1,33 L1,1 z"/></clipPath></defs><g clip-path="url(#clip193)" fill="none" opacity="1" stroke="#000000" stroke-linecap="round" stroke-linejoin="round" stroke-opacity="1" stroke-width="1.3" transform="matrix(1,0,0,1,405.781,24.9999)"><path d="M7.5,5.5 L25.5,5.5 C26.6046,5.5 27.5,6.45513 27.5,7.63333 L27.5,17.3667 C27.5,18.5449 26.6046,19.5 25.5,19.5 L7.5,19.5 C6.39543,19.5 5.5,18.5449 5.5,17.3667 L5.5,7.63333 C5.5,6.45513 6.39543,5.5 7.5,5.5 z" fill-rule="nonzero" vector-effect="none"/></g><defs><clipPath id="clip213"><path d="M-406.5,-26.5 L61.4531,-26.5 L61.4531,124.5 L-406.5,124.5 L-406.5,-26.5 z"/></clipPath></defs><g clip-path="url(#clip213)" fill="none" opacity="1" stroke="#000000" stroke-linecap="butt" stroke-linejoin="miter" stroke-miterlimit="2" stroke-opacity="1" stroke-width="1" transform="matrix(1,0,0,1,406.5,26.5)"><path d="M0,0 L30,0 L30,32 L0,32 L0,0 z" fill-rule="evenodd" vector-effect="none"/></g><defs><clipPath id="clip219"><path d="M0,0 L88,0 L88,30 L0,30 L0,0 z"/></clipPath></defs><g clip-path="url(#clip219)" fill="none" opacity="1" stroke="#000000" stroke-linecap="square" stroke-linejoin="bevel" stroke-opacity="1" stroke-width="1" transform="matrix(1,0,0,1,377.609,60)"><text fill="#000000" fill-opacity="1" font-family="Courier New" font-size="24" font-style="normal" font-weight="400" stroke="none" textLength="86.3438" x="1" xml:space="preserve" y="20.9688">Viewer</text></g><defs><clipPath id="clip227"><path d="M-147,-32 L320.953,-32 L320.953,119 L-147,119 L-147,-32 z"/></clipPath></defs><g clip-path="url(#clip227)" fill="#000000" fill-opacity="1" opacity="1" stroke="none" stroke-opacity="0" transform="matrix(1,0,0,1,147,32)"><path d="M0,0 L-8,-4 L-8,4 L0,0 z" fill-rule="nonzero" vector-effect="none"/></g><defs><clipPath id="clip230"><path d="M78.2188,88 L546.172,88 L546.172,239 L78.2188,239 L78.2188,88 z"/></clipPath></defs><g clip-path="url(#clip230)" fill="none" opacity="1" stroke="#000000" stroke-linecap="butt" stroke-linejoin="miter" stroke-miterlimit="2" stroke-opacity="1" stroke-width="1" transform="matrix(1,0,0,1,-78.2188,-88)"><path d="M125.719,105.5 L148.719,105.5 L148.719,120.5 L217.719,120.5" fill-rule="evenodd" vector-effect="none"/></g><defs><clipPath id="clip233"><path d="M-147,-47 L320.953,-47 L320.953,104 L-147,104 L-147,-47 z"/></clipPath></defs><g clip-path="url(#clip233)" fill="#000000" fill-opacity="1" opacity="1" stroke="none" stroke-opacity="0" transform="matrix(1,0,0,1,147,47)"><path d="M0,0 L-8,-4 L-8,4 L0,0 z" fill-rule="nonzero" vector-effect="none"/></g><defs><clipPath id="clip236"><path d="M78.2188,88 L546.172,88 L546.172,239 L78.2188,239 L78.2188,88 z"/></clipPath></defs><g clip-path="url(#clip236)" fill="none" opacity="1" stroke="#000000" stroke-linecap="butt" stroke-linejoin="miter" stroke-miterlimit="2" stroke-opacity="1" stroke-width="1" transform="matrix(1,0,0,1,-78.2188,-88)"><path d="M125.719,190.5 L157.719,190.5 L157.719,135.5 L217.719,135.5" fill-rule="evenodd" vector-effect="none"/></g><defs><clipPath id="clip239"><path d="M-277,-42 L190.953,-42 L190.953,109 L-277,109 L-277,-42 z"/></clipPath></defs><g clip-path="url(#clip239)" fill="#000000" fill-opacity="1" opacity="1" stroke="none" stroke-opacity="0" transform="matrix(1,0,0,1,277,42)"><path d="M0,0 L-8,-4 L-8,4 L0,0 z" fill-rule="nonzero" vector-effect="none"/></g><defs><clipPath id="clip242"><path d="M78.2188,88 L546.172,88 L546.172,239 L78.2188,239 L78.2188,88 z"/></clipPath></defs><g clip-path="url(#clip242)" fill="none" opacity="1" stroke="#000000" stroke-linecap="butt" stroke-linejoin="miter" stroke-miterlimit="2" stroke-opacity="1" stroke-width="1" transform="matrix(1,0,0,1,-78.2188,-88)"><path d="M255.719,130.5 L347.719,130.5" fill-rule="evenodd" vector-effect="none"/></g><defs><clipPath id="clip245"><path d="M-407,-42 L60.9531,-42 L60.9531,109 L-407,109 L-407,-42 z"/></clipPath></defs><g clip-path="url(#clip245)" fill="#000000" fill-opacity="1" opacity="1" stroke="none" stroke-opacity="0" transform="matrix(1,0,0,1,407,42)"><path d="M0,0 L-8,-4 L-8,4 L0,0 z" fill-rule="nonzero" vector-effect="none"/></g><defs><clipPath id="clip248"><path d="M78.2188,88 L546.172,88 L546.172,239 L78.2188,239 L78.2188,88 z"/></clipPath></defs><g clip-path="url(#clip248)" fill="none" opacity="1" stroke="#000000" stroke-linecap="butt" stroke-linejoin="miter" stroke-miterlimit="2" stroke-opacity="1" stroke-width="1" transform="matrix(1,0,0,1,-78.2188,-88)"><path d="M385.719,130.5 L477.719,130.5" fill-rule="evenodd" vector-effect="none"/></g></g><!--generated on osx @ 2022-01-15 12:59:57 CST--></svg>
